<?xml version="1.0" standalone="no"?>
<!DOCTYPE svg PUBLIC "-//W3C//DTD SVG 20010904//EN"
 "http://www.w3.org/TR/2001/REC-SVG-20010904/DTD/svg10.dtd">
<svg version="1.0" xmlns="http://www.w3.org/2000/svg"
 width="187.000000pt" height="307.000000pt" viewBox="0 0 187.000000 307.000000"
 preserveAspectRatio="xMidYMid meet">
<metadata>
Created by potrace 1.15, written by Peter Selinger 2001-2017
</metadata>
<g transform="translate(0.000000,307.000000) scale(0.100000,-0.100000)"
fill="#000000" stroke="none">
<path d="M1150 2536 c0 -4 5 -15 12 -25 10 -17 7 -24 -19 -51 -17 -18 -37 -45
-43 -60 -16 -39 -36 -44 -83 -21 -21 11 -45 17 -53 14 -8 -3 -20 0 -28 6 -12
10 -81 21 -226 37 -99 10 -126 17 -145 38 -11 12 -17 17 -12 12 4 -6 7 -17 7
-25 0 -12 -3 -12 -17 1 -15 13 -28 14 -72 7 -64 -10 -67 -12 -46 -32 9 -10 14
-28 11 -48 -3 -31 -7 -34 -79 -59 -105 -35 -107 -43 -3 -15 194 53 387 54 569
1 173 -51 317 -108 317 -127 0 -3 27 -25 60 -48 33 -23 58 -46 55 -51 -6 -10
-65 20 -65 33 0 4 -8 7 -19 7 -10 0 -24 7 -31 15 -7 8 -40 24 -74 34 -82 27
-255 89 -269 98 -19 12 -198 13 -302 3 -142 -14 -354 -81 -347 -109 1 -6 -6
-14 -15 -17 -50 -17 -176 -88 -181 -102 -3 -11 31 -22 72 -22 29 0 96 -35 96
-50 0 -15 116 -69 138 -64 11 3 28 1 39 -4 12 -7 36 -7 68 -1 31 6 52 6 59 -1
6 -6 16 -4 27 6 16 14 18 13 30 -20 14 -39 21 -43 38 -22 17 20 69 28 94 14
12 -7 48 -13 80 -15 32 -1 64 -6 70 -11 7 -5 30 -15 52 -22 22 -7 45 -16 50
-20 6 -5 23 -10 40 -12 24 -2 30 1 36 22 4 14 7 19 8 11 1 -8 7 -11 17 -7 9 3
28 -2 42 -13 26 -18 112 -41 153 -41 11 0 30 10 42 23 25 25 48 28 60 10 11
-18 37 -215 37 -285 0 -32 5 -58 10 -58 6 0 10 8 10 18 0 9 6 29 14 43 7 14
11 40 8 57 -2 18 1 46 8 63 11 26 17 30 39 25 25 -6 25 -6 7 9 -11 8 -25 15
-32 15 -6 0 -17 7 -24 15 -9 11 -9 15 -1 15 8 0 10 14 7 40 -3 22 -1 42 4 45
5 3 7 14 5 25 -5 24 17 27 35 5 16 -19 56 -19 64 0 3 9 -8 29 -27 49 -69 73
-75 91 -82 259 -4 73 -8 142 -11 154 -4 23 -93 139 -107 141 -5 0 -17 10 -26
21 -10 12 -23 21 -30 21 -6 0 -11 4 -11 8 0 7 -31 20 -87 37 -13 3 -23 4 -23
1z"/>
<path d="M355 1809 c-22 -23 -19 -26 33 -33 26 -4 56 -9 67 -11 11 -2 23 -4
28 -4 4 -1 7 -5 7 -9 0 -4 -28 -14 -62 -21 -92 -19 -126 -32 -150 -58 -27 -29
-17 -41 17 -19 32 21 115 33 115 17 0 -6 11 -11 24 -11 56 0 74 -24 31 -40
-40 -15 -29 -27 30 -34 66 -7 146 22 164 61 14 31 14 90 0 99 -6 3 -8 15 -6
26 3 11 3 18 1 15 -5 -5 -118 18 -144 30 -8 4 -43 7 -78 8 -46 0 -67 -4 -77
-16z"/>
<path d="M900 1736 c-12 -21 -30 -36 -40 -36 -30 0 -32 -15 -10 -73 23 -61 76
-128 82 -103 2 12 12 9 46 -15 50 -34 67 -37 50 -9 -11 17 -10 22 2 30 8 5 17
7 21 4 4 -2 10 0 14 6 3 5 -6 15 -20 20 -19 7 -25 15 -21 26 3 9 6 16 6 17 0
1 32 1 71 0 59 -2 75 -6 100 -28 37 -31 59 -33 52 -5 -7 26 -54 62 -113 89
-39 17 -42 20 -20 22 14 2 34 4 45 5 11 1 26 2 33 3 7 1 -1 15 -17 32 -28 29
-34 31 -118 34 -48 1 -100 6 -114 10 -23 6 -29 2 -49 -29z"/>
<path d="M1526 1516 c-22 -64 -17 -96 8 -49 17 34 66 57 74 35 2 -7 10 -12 18
-12 10 0 14 -8 12 -22 -2 -15 3 -24 15 -26 16 -3 18 1 12 26 -7 34 2 44 32 36
16 -5 20 -13 18 -37 -4 -48 -4 -49 -14 -43 -5 3 -11 -1 -14 -8 -3 -8 -1 -17 6
-20 7 -2 -1 -5 -16 -5 -30 -1 -67 15 -79 33 -5 8 -8 8 -8 0 0 -6 11 -20 25
-32 23 -20 29 -21 79 -10 36 7 57 16 59 27 4 14 5 13 6 -1 1 -12 9 -18 25 -18
16 0 35 -13 55 -37 l30 -38 1 122 0 123 -23 -9 c-14 -6 -30 -6 -38 0 -8 5 -24
9 -36 9 -22 0 -22 -1 -5 -32 9 -18 22 -36 28 -40 6 -4 19 -20 29 -35 10 -16
12 -22 4 -15 -19 17 -29 15 -22 -5 6 -16 5 -16 -11 -4 -9 8 -15 20 -12 28 3 8
1 11 -4 8 -6 -3 -10 0 -10 7 -1 18 -81 77 -121 88 -19 6 -50 10 -69 10 -34 0
-37 -2 -54 -54z"/>
<path d="M525 1410 c-3 -11 -11 -20 -16 -20 -5 0 -9 -7 -9 -15 0 -8 -4 -15 -9
-15 -9 0 -126 -138 -153 -181 -19 -31 -21 -94 -4 -112 13 -13 13 -45 1 -90 -4
-17 -3 -33 3 -39 15 -15 -5 -63 -33 -78 -13 -7 -22 -16 -20 -21 3 -4 -1 -9 -7
-12 -10 -4 -10 -7 -1 -17 10 -11 14 -8 23 14 5 15 14 25 20 21 5 -3 7 -12 3
-20 -7 -20 6 -19 28 1 10 9 15 22 12 30 -3 9 2 14 15 14 16 0 20 -5 16 -24 -5
-27 6 -39 28 -31 9 4 13 27 13 83 0 67 3 80 23 100 l23 23 95 -16 c53 -9 98
-14 101 -11 4 3 -1 6 -10 6 -22 0 -22 28 0 52 15 17 15 18 0 18 -10 0 -17 8
-17 20 0 26 46 38 66 18 16 -15 9 -48 -9 -48 -6 0 -2 -7 9 -15 19 -15 19 -15
-3 -34 l-22 -18 24 -11 c14 -6 32 -9 40 -6 8 4 15 1 15 -6 0 -9 18 -10 68 -5
l67 6 28 -36 c15 -19 25 -40 22 -45 -3 -6 -1 -10 4 -10 6 0 11 -7 11 -15 0 -8
-6 -15 -14 -15 -9 0 -12 -8 -8 -25 2 -14 0 -25 -6 -25 -5 0 -13 -11 -16 -25
-4 -15 -11 -23 -17 -19 -6 4 -15 0 -20 -7 -12 -18 -11 -32 0 -24 6 3 6 -6 1
-24 -6 -22 -5 -31 6 -35 11 -4 14 4 14 35 0 24 4 38 10 34 6 -3 10 2 11 12 0
13 4 10 13 -10 7 -16 19 -33 27 -38 10 -6 10 -9 2 -9 -7 0 -13 -5 -13 -10 0
-6 6 -10 13 -8 16 3 57 -20 57 -33 0 -5 -10 -3 -23 6 -30 19 -37 12 -37 -42 0
-40 2 -44 20 -38 14 5 20 2 20 -10 0 -9 4 -14 9 -11 4 3 6 17 4 31 -4 17 0 27
11 31 24 9 30 -1 10 -20 -9 -9 -14 -19 -11 -23 7 -6 57 45 58 61 1 6 0 26 -1
44 -1 18 4 40 11 48 6 8 9 17 6 21 -4 3 1 12 11 20 9 8 12 12 5 9 -7 -4 -9 1
-6 15 3 11 9 16 12 10 4 -6 12 -7 21 -1 13 8 11 14 -12 34 -14 14 -28 21 -30
15 -2 -6 -11 -7 -21 -4 -11 5 -17 18 -17 42 0 20 4 32 10 28 6 -4 10 6 11 22
1 15 3 59 5 97 2 53 -1 77 -16 106 -11 21 -24 41 -30 45 -5 3 -14 25 -21 48
-11 44 -61 138 -82 155 -9 8 -11 0 -8 -34 2 -31 11 -53 31 -74 15 -16 30 -40
33 -52 3 -13 8 -32 12 -43 5 -17 1 -20 -22 -20 -15 0 -34 5 -41 12 -7 7 -19
13 -25 13 -7 0 -20 12 -30 26 -15 20 -16 28 -7 39 34 41 -49 65 -85 25 -15
-17 -27 -19 -83 -15 -73 6 -83 10 -76 29 7 19 -21 38 -53 34 l-28 -4 28 -14
c31 -15 35 -38 10 -47 -10 -4 -21 -11 -25 -17 -5 -7 -11 -8 -15 -1 -9 12 -38
13 -49 2 -9 -9 -48 -9 -57 0 -8 7 11 39 46 77 14 15 27 39 30 54 3 15 9 35 12
45 4 9 3 17 -3 17 -6 0 -14 -9 -17 -20z"/>
<path d="M1715 1290 c4 -6 -7 -9 -27 -8 -18 1 -54 -1 -80 -6 -38 -6 -48 -11
-48 -26 0 -13 5 -17 15 -14 8 4 22 1 30 -6 12 -10 15 -10 15 1 0 8 10 19 23
24 20 10 22 8 23 -22 0 -25 -4 -33 -17 -33 -9 0 -22 -7 -29 -15 -7 -8 -20 -15
-30 -15 -18 0 -50 -30 -50 -46 0 -6 -13 -23 -30 -39 -33 -31 -35 -28 -19 28 7
26 16 37 28 37 24 0 36 29 15 37 -18 7 -47 60 -35 65 4 2 5 12 0 23 -7 17 -8
18 -8 2 -1 -14 -5 -16 -20 -7 -54 28 -85 -7 -96 -111 l-7 -66 31 -13 c46 -19
47 -29 1 -18 -49 13 -60 9 -84 -32 -10 -18 -14 -30 -8 -27 9 6 22 -13 22 -33
0 -4 -12 -11 -27 -16 l-28 -7 30 -6 c27 -6 30 -10 30 -46 l0 -40 -45 3 c-27 2
-50 10 -57 20 -11 14 -13 11 -13 -19 1 -49 20 -69 65 -69 21 0 35 3 32 7 -8 8
11 33 25 33 7 0 6 -5 -1 -13 -15 -18 -6 -25 24 -19 27 5 33 17 13 25 -8 3 -6
6 5 6 18 1 21 -10 11 -45 -5 -18 -12 -21 -50 -19 -25 1 -48 -3 -51 -8 -3 -6
-1 -7 5 -3 16 9 24 -9 16 -39 -4 -17 -16 -28 -38 -34 l-31 -9 33 -1 c28 -1 33
-5 38 -31 4 -18 13 -30 23 -30 9 0 27 -3 41 -6 24 -6 25 -6 5 9 -20 16 -20 16
3 17 15 0 22 6 22 19 0 15 11 22 48 29 50 11 121 7 136 -8 12 -12 0 -39 -21
-47 -25 -10 -40 -26 -36 -39 2 -6 -11 -16 -29 -21 -18 -6 -25 -11 -15 -12 9
-1 17 -5 17 -11 0 -24 295 3 304 27 7 18 -29 59 -39 44 -9 -16 -25 -13 -19 3
3 8 0 25 -7 38 -11 21 -11 22 5 9 20 -17 18 -18 44 42 12 26 28 50 37 53 28
11 29 -5 2 -30 -15 -14 -27 -29 -27 -35 0 -18 12 -41 22 -41 6 0 8 7 4 15 -3
8 -2 14 2 14 28 -4 32 4 32 62 0 37 -4 58 -10 54 -14 -9 -13 8 2 23 16 16 2
28 -16 13 -8 -6 -18 -11 -22 -9 -35 9 -100 -74 -92 -119 2 -12 -2 -17 -12 -15
-8 2 -40 6 -70 9 -30 2 -73 9 -95 15 -22 6 -47 10 -57 9 -20 -2 -30 13 -35 53
-7 56 -5 78 7 86 8 5 7 9 -4 13 -17 7 -15 59 3 65 6 2 11 -1 11 -7 0 -7 22
-10 60 -9 63 3 71 10 84 70 7 30 49 49 68 30 7 -7 17 -8 29 -1 10 5 22 8 26 7
11 -4 63 37 63 49 0 6 9 18 20 28 27 24 18 31 -13 10 -22 -14 -25 -14 -30 0
-4 8 -2 15 3 15 5 0 7 7 4 15 -4 9 -19 15 -35 15 -38 0 -37 19 1 27 17 3 30
10 30 16 0 5 8 3 18 -6 20 -19 37 -23 27 -7 -3 6 -1 10 4 10 6 0 11 -4 11 -10
0 -5 5 -10 10 -10 7 0 7 7 0 20 -5 11 -15 29 -20 40 -9 17 -7 20 10 20 11 0
20 3 20 8 0 4 -28 9 -62 10 -35 2 -67 8 -72 13 -13 12 -29 12 -21 -1z"/>
<path d="M865 751 c-3 -6 -16 -11 -29 -11 -30 0 -37 -9 -26 -29 6 -12 0 -29
-21 -60 -25 -38 -29 -41 -29 -20 0 25 -20 65 -20 41 0 -7 -5 -10 -11 -7 -6 4
-8 14 -5 22 3 8 2 12 -3 9 -5 -3 -11 3 -14 14 -3 12 -14 20 -26 20 -26 0 -55
-42 -46 -70 4 -11 2 -20 -4 -20 -6 0 -14 12 -17 26 -8 32 -23 14 -25 -31 -1
-17 -3 -22 -6 -12 -7 25 -20 21 -27 -10 -7 -24 -8 -25 -23 -10 -15 15 -15 18
0 35 25 28 21 33 -13 14 -26 -15 -29 -22 -26 -52 3 -27 1 -31 -7 -19 -9 15
-12 15 -29 0 -23 -20 -23 -30 1 -24 17 4 19 1 14 -34 -5 -39 -4 -40 40 -61 49
-23 119 -42 152 -41 13 0 8 5 -15 14 -34 13 -32 13 50 13 94 0 122 3 163 20
16 7 35 12 43 12 8 0 14 11 15 28 1 17 3 20 6 9 2 -9 9 -15 14 -12 5 4 9 -2
10 -12 0 -16 1 -16 8 2 13 33 4 88 -17 104 -11 9 -23 25 -26 36 -3 11 -4 1 -3
-22 2 -29 -2 -44 -14 -51 -9 -6 -20 -8 -23 -5 -10 11 -7 55 4 48 18 -11 11 8
-12 33 -13 14 -18 22 -12 19 14 -8 25 61 11 70 -5 3 -3 9 4 14 7 4 11 11 7 14
-3 4 -9 2 -13 -4z"/>
<path d="M1160 411 c0 -34 -35 -103 -67 -132 -15 -14 -50 -39 -78 -56 -101
-62 -340 -69 -551 -18 -84 21 -146 46 -277 111 -92 46 -170 84 -172 84 -3 0
-5 -90 -5 -200 l0 -200 930 0 930 0 0 108 0 107 -52 19 c-29 10 -72 36 -95 57
-53 49 -84 50 -186 9 -42 -16 -85 -30 -97 -30 -22 0 -80 55 -80 77 0 19 -77
54 -126 58 -24 1 -51 8 -59 15 -13 10 -15 9 -15 -9z"/>
</g>
</svg>
